<?xml version="1.0" encoding="utf-8"?>
<!-- Generator: Adobe Illustrator 22.1.0, SVG Export Plug-In . SVG Version: 6.00 Build 0)  -->
<svg version="1.1"
	 id="svg8" inkscape:version="0.92.3 (2405546, 2018-03-11)" sodipodi:docname="nissin.svg" xmlns:cc="http://creativecommons.org/ns#" xmlns:dc="http://purl.org/dc/elements/1.1/" xmlns:inkscape="http://www.inkscape.org/namespaces/inkscape" xmlns:rdf="http://www.w3.org/1999/02/22-rdf-syntax-ns#" xmlns:sodipodi="http://sodipodi.sourceforge.net/DTD/sodipodi-0.dtd" xmlns:svg="http://www.w3.org/2000/svg"
	 xmlns="http://www.w3.org/2000/svg" xmlns:xlink="http://www.w3.org/1999/xlink" x="0px" y="0px" viewBox="0 0 104.6 52.3"
	 style="enable-background:new 0 0 104.6 52.3;" xml:space="preserve">
<style type="text/css">
	.st0{opacity:0.3;}
	.st1{fill:#E60012;}
	.st2{fill:#FFFFFF;}
</style>
<sodipodi:namedview  bordercolor="#666666" borderopacity="1.0" fit-margin-bottom="0" fit-margin-left="0" fit-margin-right="0" fit-margin-top="0" id="base" inkscape:current-layer="layer1" inkscape:cx="1081.166" inkscape:cy="250.05245" inkscape:document-units="mm" inkscape:pageopacity="0" inkscape:pageshadow="2" inkscape:window-height="1001" inkscape:window-maximized="1" inkscape:window-width="1920" inkscape:window-x="-9" inkscape:window-y="-9" inkscape:zoom="0.5" pagecolor="#00ffff" showgrid="false">
	</sodipodi:namedview>
<g id="layer1" transform="translate(-110.43664,-238.17328)" inkscape:groupmode="layer" inkscape:label="Layer 1" class="st0">
	<g id="g341" transform="matrix(2.893153,0,0,2.893153,-565.97854,-499.60214)">
		<path id="path62-7" inkscape:connector-curvature="0" class="st1" d="M251.9,273.1c10,0,18.1-8.1,18.1-18.1h-36.1
			C233.8,265,241.9,273.1,251.9,273.1"/>
		<path id="path64-4" inkscape:connector-curvature="0" class="st2" d="M244.7,258.4h1.7v6.4h-1.7V258.4z M259,258.4h-1.7v6.4h1.7
			V258.4z M243.6,258.4h-1.5H242v3.3l-2-3.3h-1.7v6.4v0h1.7v-3.4l1.2,1.9c0.3,0.4,0.7,0.9,1.2,1.2c0.3,0.2,0.8,0.4,1.4,0.4
			L243.6,258.4L243.6,258.4z M265.3,258.4h-1.5h-0.1v3.3l-2-3.3H260v6.4v0h1.7v-3.4l1.2,1.9c0.3,0.4,0.7,0.9,1.2,1.2
			c0.3,0.2,0.8,0.4,1.4,0.4L265.3,258.4L265.3,258.4z M255.7,262.3c-0.8-0.6-1.5-0.8-1.7-0.9c-0.2-0.1-0.4-0.4-0.4-0.6
			c0-0.4,0.3-0.7,0.8-0.7h1.9v-1.7H254c-1.3,0-2.3,1-2.3,2.3c0,0.1,0,0.2,0,0.3c-0.2-0.2-0.4-0.4-0.6-0.6c-0.8-0.6-1.5-0.7-1.7-0.8
			c-0.2-0.1-0.4-0.4-0.4-0.6c0-0.4,0.3-0.7,0.8-0.7h2v-1.7h-2.3c-1.3,0-2.3,1-2.3,2.3c0,0.9,0.5,1.7,1.2,2c0.3,0.1,0.5,0.3,0.8,0.4
			c0.2,0.1,1.2,0.4,1.2,1c0,0.4-0.4,0.7-0.8,0.7H247v1.7h2.8c1.3,0,2.4-1.1,2.4-2.4c0-0.1,0-0.2,0-0.3c0.2,0.3,0.5,0.5,0.8,0.7
			c0.3,0.1,0.5,0.3,0.8,0.4c0.2,0.1,1.2,0.4,1.2,1c0,0.4-0.4,0.7-0.9,0.7h-2.4v1.7h2.8c1.3,0,2.4-1.1,2.4-2.4
			C256.8,263.5,256.3,262.8,255.7,262.3"/>
	</g>
</g>
</svg>
